HIERARCHY
ROOT Pelvis
{
	OFFSET 0.000000 0.000000 0.000000
	CHANNELS 6 Xposition Yposition Zposition Xrotation Yrotation Zrotation
	JOINT LeftUpLeg_virtual
	{
		OFFSET 0.000000 0.000000 0.000000
		CHANNELS 3 Xrotation Yrotation Zrotation
		JOINT LeftUpLeg
		{
			OFFSET 18.735201 -5.666702 -4.541200
			CHANNELS 3 Xrotation Yrotation Zrotation
			JOINT LeftLeg
			{
				OFFSET -0.021200 -31.938179 0.493100
				CHANNELS 3 Xrotation Yrotation Zrotation
				JOINT LeftFoot
				{
					OFFSET 0.021200 -31.938179 -4.336299
					CHANNELS 3 Xrotation Yrotation Zrotation
					JOINT LeftToeBase
					{
						OFFSET 0.943001 -26.722000 15.023500
						CHANNELS 3 Xrotation Yrotation Zrotation
						End Site
						{
							OFFSET 0 0 0
						}
					}
				}
			}
		}
	}
	JOINT RightUpLeg_virtual
	{
		OFFSET 0.000000 0.000000 0.000000
		CHANNELS 3 Xrotation Yrotation Zrotation
		JOINT RightUpLeg
		{
			OFFSET -18.735201 -5.666702 -4.541200
			CHANNELS 3 Xrotation Yrotation Zrotation
			JOINT RightLeg
			{
				OFFSET 0.018946 -31.938133 0.493100
				CHANNELS 3 Xrotation Yrotation Zrotation
				JOINT RightFoot
				{
					OFFSET -0.018946 -31.938126 -4.336299
					CHANNELS 3 Xrotation Yrotation Zrotation
					JOINT RightToeBase
					{
						OFFSET -0.943001 -26.722004 15.023500
						CHANNELS 3 Xrotation Yrotation Zrotation
						End Site
						{
							OFFSET 0 0 0
						}
					}
				}
			}
		}
	}
	JOINT Hips_virtual
	{
		OFFSET 0.000000 0.000000 0.000000
		CHANNELS 3 Xrotation Yrotation Zrotation
		JOINT Hips
		{
			OFFSET -0.000000 -0.000000 -0.000000
			CHANNELS 3 Xrotation Yrotation Zrotation
			JOINT Spine
			{
				OFFSET 0.000000 10.199997 -0.299500
				CHANNELS 3 Xrotation Yrotation Zrotation
				JOINT Spine1
				{
					OFFSET 0.000000 11.900002 -1.516600
					CHANNELS 3 Xrotation Yrotation Zrotation
					JOINT Spine2
					{
						OFFSET 0.000000 13.600006 -2.842500
						CHANNELS 3 Xrotation Yrotation Zrotation
						JOINT Neck_virtual
						{
							OFFSET 0.000000 0.000000 0.000000
							CHANNELS 3 Xrotation Yrotation Zrotation
							JOINT Neck
							{
								OFFSET 0.000000 9.624100 -2.890100
								CHANNELS 3 Xrotation Yrotation Zrotation
								JOINT Head
								{
									OFFSET 0.000000 14.068802 -1.351900
									CHANNELS 3 Xrotation Yrotation Zrotation
									End Site
									{
										OFFSET 0 0 0
									}
								}
							}
						}
						JOINT LeftShoulder_virtual
						{
							OFFSET 0.000000 0.000000 0.000000
							CHANNELS 3 Xrotation Yrotation Zrotation
							JOINT LeftShoulder
							{
								OFFSET 15.263000 10.923401 -0.547700
								CHANNELS 3 Xrotation Yrotation Zrotation
								JOINT LeftArm
								{
									OFFSET 25.438599 -2.830597 -13.032500
									CHANNELS 3 Xrotation Yrotation Zrotation
									JOINT LeftForeArm
									{
										OFFSET 29.960503 0.000000 0.000000
										CHANNELS 3 Xrotation Yrotation Zrotation
										JOINT LeftHand
										{
											OFFSET 27.849251 0.000000 0.000000
											CHANNELS 3 Xrotation Yrotation Zrotation
											End Site
											{
												OFFSET 0 0 0
											}
										}
									}
								}
							}
						}
						JOINT RightShoulder_virtual
						{
							OFFSET 0.000000 0.000000 0.000000
							CHANNELS 3 Xrotation Yrotation Zrotation
							JOINT RightShoulder
							{
								OFFSET -15.263000 10.923401 -0.547700
								CHANNELS 3 Xrotation Yrotation Zrotation
								JOINT RightArm
								{
									OFFSET -25.438599 -2.830597 -13.032500
									CHANNELS 3 Xrotation Yrotation Zrotation
									JOINT RightForeArm
									{
										OFFSET -29.960503 0.000000 0.000000
										CHANNELS 3 Xrotation Yrotation Zrotation
										JOINT RightHand
										{
											OFFSET -27.849251 0.000000 0.000000
											CHANNELS 3 Xrotation Yrotation Zrotation
											End Site
											{
												OFFSET 0 0 0
											}
										}
									}
								}
							}
						}
					}
				}
			}
		}
	}
}
MOTION
Frames: 12
Frame Time: 0.03333333
-3.517374 90.496323 1.586479 0.000000 0.000000 0.000000 15.482287 -34.127549 4.924604 -23.327024 3.186495 15.538291 45.664558 4.783004 -4.721453 -2.309377 7.105754 -9.672586 0.000000 0.000000 0.000000 12.454439 -6.551199 5.321872 -13.991477 -8.835645 -9.933948 20.716223 -9.503706 1.312098 -26.950839 -14.052643 7.441822 0.000000 0.000000 0.000000 2.805376 8.284651 0.350159 5.694439 30.074378 -4.775993 4.713857 4.915615 -1.433041 0.169641 2.631111 -0.242771 0.000000 0.000000 0.000000 0.121901 2.311867 -1.038509 -1.636324 2.097437 -1.082511 0.000000 0.000000 0.000000 1.060944 2.361060 1.538336 0.431600 4.200354 1.013177 -51.316799 -15.088250 -34.540226 -19.170268 -70.312303 -9.171261 0.000000 0.000000 0.000000 3.285358 3.102602 0.295222 3.098838 13.280851 7.475354 20.647020 0.180589 51.108154 10.155377 46.800746 0.166173 0.000000 0.000000 0.000000 
-3.703072 90.595848 1.611210 0.000000 0.000000 0.000000 15.282717 -33.660859 4.871965 -23.467584 3.255701 15.620352 45.514779 4.982233 -4.838535 -2.468470 7.373584 -9.717090 0.000000 0.000000 0.000000 12.431155 -5.833267 5.150110 -13.892859 -8.613052 -9.979374 21.020980 -9.315634 1.212889 -26.697417 -13.832476 7.379647 0.000000 0.000000 0.000000 2.744066 8.012031 0.390960 4.679138 28.563660 -4.022047 4.723797 4.836139 -1.360210 0.192199 2.581189 -0.196976 0.000000 0.000000 0.000000 0.167624 2.152088 -0.977150 -1.656029 1.903873 -1.019962 0.000000 0.000000 0.000000 1.073652 2.346800 1.558760 0.480554 3.879426 0.976259 -51.549101 -15.029012 -35.322310 -20.254948 -71.011373 -10.191572 0.000000 0.000000 0.000000 3.413587 3.062807 0.251920 3.144776 13.121874 7.474865 20.449352 0.785480 50.853364 10.299737 46.500566 0.014355 0.000000 0.000000 0.000000 
-3.889633 90.679932 1.596926 0.000000 0.000000 0.000000 15.086734 -33.254371 4.816704 -23.618068 3.313480 15.687775 45.400455 5.213194 -4.980949 -2.601834 7.684964 -9.778687 0.000000 0.000000 0.000000 12.409245 -5.134740 4.991295 -13.799043 -8.397457 -10.015576 21.368424 -9.110321 1.125661 -26.415256 -13.598839 7.344213 0.000000 0.000000 0.000000 2.676782 7.669655 0.435103 3.641598 26.868333 -3.284853 4.815936 4.774362 -1.324182 0.262629 2.541126 -0.170760 0.000000 0.000000 0.000000 0.205635 2.012066 -0.937302 -1.679341 1.723031 -0.967164 0.000000 0.000000 0.000000 1.106957 2.327539 1.575613 0.537233 3.536891 0.936482 -51.692074 -14.964885 -36.135225 -21.349822 -71.707164 -11.258558 0.000000 0.000000 0.000000 3.517368 3.010277 0.208474 3.157868 12.913270 7.461790 20.260131 1.404157 50.553669 10.447795 46.205803 -0.144801 0.000000 0.000000 0.000000 
-4.079263 90.739281 1.596046 0.000000 0.000000 0.000000 14.895791 -32.943700 4.768973 -23.783364 3.348078 15.744785 45.317899 5.477872 -5.146130 -2.714420 8.040494 -9.851577 0.000000 0.000000 0.000000 12.383755 -4.503041 4.837531 -13.723325 -8.199442 -10.059813 21.751338 -8.905301 1.037196 -26.111181 -13.360910 7.306403 0.000000 0.000000 0.000000 2.584027 7.276940 0.475502 2.497158 25.024321 -2.587208 4.939515 4.714282 -1.315835 0.350252 2.502542 -0.160342 0.000000 0.000000 0.000000 0.218900 1.886895 -0.885632 -1.714988 1.549579 -0.905457 0.000000 0.000000 0.000000 1.147251 2.306853 1.589428 0.589572 3.181935 0.899522 -51.834920 -14.835290 -36.952758 -22.550506 -72.365731 -12.431099 0.000000 0.000000 0.000000 3.620771 2.951563 0.161426 3.164598 12.672613 7.422123 20.116954 2.019181 50.217354 10.611724 45.889661 -0.310275 0.000000 0.000000 0.000000 
-4.260283 90.767456 1.582150 0.000000 0.000000 0.000000 14.708360 -32.729536 4.754857 -23.966676 3.348631 15.818313 45.220965 5.800405 -5.325887 -2.832960 8.464037 -9.908739 0.000000 0.000000 0.000000 12.351136 -3.885453 4.681023 -13.658355 -8.003079 -10.108831 22.161449 -8.669912 0.947166 -25.784408 -13.092828 7.281923 0.000000 0.000000 0.000000 2.510753 6.850154 0.504694 1.440900 23.041754 -2.002165 5.056084 4.637977 -1.303894 0.433367 2.455726 -0.148228 0.000000 0.000000 0.000000 0.214649 1.751675 -0.864634 -1.759529 1.369513 -0.857944 0.000000 0.000000 0.000000 1.200142 2.283350 1.598798 0.641475 2.818083 0.859334 -51.960251 -14.678920 -37.802058 -23.852754 -73.005741 -13.719334 0.000000 0.000000 0.000000 3.721273 2.883561 0.108990 3.160818 12.405187 7.347317 19.956962 2.661130 49.850037 10.766256 45.603742 -0.467707 0.000000 0.000000 0.000000 
-4.431089 90.790405 1.494463 0.000000 0.000000 0.000000 14.528494 -32.575143 4.734387 -24.145586 3.339050 15.871034 45.149507 6.166598 -5.528749 -2.930565 8.942532 -9.971590 0.000000 0.000000 0.000000 12.329527 -3.350133 4.566186 -13.590669 -7.836716 -10.127185 22.618895 -8.425833 0.870461 -25.423281 -12.819714 7.282492 0.000000 0.000000 0.000000 2.490471 6.376721 0.502135 0.651942 20.897903 -1.698251 5.176955 4.553806 -1.291587 0.519938 2.405072 -0.136322 0.000000 0.000000 0.000000 0.188925 1.609900 -0.852914 -1.814176 1.184263 -0.812651 0.000000 0.000000 0.000000 1.228775 2.256964 1.607678 0.660335 2.432855 0.833920 -52.258283 -14.453351 -38.585279 -25.382988 -73.579961 -15.166486 0.000000 0.000000 0.000000 3.841305 2.813115 0.057443 3.167394 12.130464 7.263847 19.891340 3.426568 49.493422 10.972475 45.386511 -0.614644 0.000000 0.000000 0.000000 
-4.599918 90.812431 1.354267 0.000000 0.000000 0.000000 14.344627 -32.481894 4.725290 -24.356473 3.312369 15.931309 45.116073 6.569799 -5.754057 -3.010912 9.466480 -10.040839 0.000000 0.000000 0.000000 12.294106 -2.939850 4.426341 -13.561390 -7.697227 -10.196450 23.070537 -8.174027 0.775699 -25.065718 -12.529356 7.260302 0.000000 0.000000 0.000000 2.538893 5.956914 0.480202 0.175277 18.772512 -1.563452 5.316746 4.450405 -1.281985 0.618419 2.344797 -0.126580 0.000000 0.000000 0.000000 0.022149 1.428374 -0.817299 -1.937195 0.973566 -0.752817 0.000000 0.000000 0.000000 1.303159 2.229096 1.616132 0.707020 2.031845 0.822945 -52.335498 -14.320114 -39.340578 -26.686189 -74.131526 -16.449334 0.000000 0.000000 0.000000 3.974102 2.731327 0.005036 3.179559 11.824855 7.156423 19.906267 4.236528 49.158975 11.205156 45.166187 -0.735020 0.000000 0.000000 0.000000 
-4.761445 90.846840 1.199135 0.000000 0.000000 0.000000 14.180535 -32.435820 4.731223 -24.565754 3.276934 15.997987 45.114185 7.005951 -5.997643 -3.078069 10.029390 -10.112489 0.000000 0.000000 0.000000 12.250723 -2.591039 4.299603 -13.555043 -7.574909 -10.264053 23.548173 -7.904652 0.682784 -24.689575 -12.221006 7.251267 0.000000 0.000000 0.000000 2.755721 5.775594 0.384754 0.476607 17.074495 -1.955638 5.461592 4.331747 -1.279724 0.719466 2.277294 -0.121813 0.000000 0.000000 0.000000 -0.184458 1.209407 -0.762718 -2.078427 0.738532 -0.680439 0.000000 0.000000 0.000000 1.384049 2.195854 1.620234 0.746927 1.598919 0.812132 -52.378716 -14.208715 -40.074499 -27.971220 -74.638135 -17.723497 0.000000 0.000000 0.000000 4.128961 2.653222 -0.054147 3.203675 11.541570 7.005142 19.901353 5.052791 48.826266 11.408360 44.925781 -0.813761 0.000000 0.000000 0.000000 
-4.879757 90.888344 1.015032 0.000000 0.000000 0.000000 14.005743 -32.465009 4.747156 -24.803171 3.217123 16.065933 45.103485 7.463865 -6.246174 -3.161962 10.614289 -10.175051 0.000000 0.000000 0.000000 12.192115 -2.318967 4.168859 -13.575884 -7.469635 -10.347959 23.994043 -7.604182 0.587972 -24.330778 -11.884407 7.258137 0.000000 0.000000 0.000000 2.978687 5.594662 0.293340 0.764846 15.281621 -2.317429 5.600884 4.203227 -1.271049 0.820091 2.204651 -0.114240 0.000000 0.000000 0.000000 -0.373971 0.960625 -0.676586 -2.210688 0.483335 -0.588652 0.000000 0.000000 0.000000 1.481734 2.154905 1.617710 0.788691 1.117442 0.789156 -52.406259 -14.099482 -40.687836 -29.121509 -75.055740 -18.837629 0.000000 0.000000 0.000000 4.287001 2.575424 -0.114181 3.219130 11.254947 6.830620 19.869958 5.811993 48.489675 11.562013 44.594838 -0.842760 0.000000 0.000000 0.000000 
-4.967313 90.933891 0.807816 0.000000 0.000000 0.000000 13.873240 -32.544820 4.771870 -25.002672 3.155188 16.124678 45.140549 7.937524 -6.504365 -3.211319 11.215738 -10.237737 0.000000 0.000000 0.000000 12.142525 -2.175904 4.026845 -13.601331 -7.398247 -10.467009 24.462691 -7.289103 0.489721 -23.955630 -11.529658 7.269021 0.000000 0.000000 0.000000 3.216033 5.396647 0.212022 1.099810 13.335727 -2.594419 5.752052 4.058635 -1.260515 0.932290 2.122429 -0.105443 0.000000 0.000000 0.000000 -0.551360 0.687569 -0.599441 -2.334865 0.210838 -0.500744 0.000000 0.000000 0.000000 1.587527 2.109920 1.610379 0.822999 0.590539 0.757106 -52.412584 -14.015594 -41.215465 -30.095528 -75.389483 -19.772440 0.000000 0.000000 0.000000 4.454893 2.508846 -0.146586 3.218994 10.999235 6.753476 19.821948 6.452058 48.223229 11.638741 44.056421 -0.767534 0.000000 0.000000 0.000000 
-5.044010 90.964424 0.609898 0.000000 0.000000 0.000000 13.759293 -32.682804 4.797360 -25.203763 3.087299 16.175117 45.187999 8.424858 -6.768338 -3.261868 11.829807 -10.296532 0.000000 0.000000 0.000000 12.068752 -2.056190 3.900783 -13.666280 -7.331943 -10.574475 24.924200 -6.928331 0.410872 -23.578544 -11.142783 7.337525 0.000000 0.000000 0.000000 3.455623 5.177422 0.136477 1.434620 11.272717 -2.831141 5.895771 3.899407 -1.260026 1.042832 2.032453 -0.102988 0.000000 0.000000 0.000000 -0.701037 0.375551 -0.501588 -2.442328 -0.087712 -0.400416 0.000000 0.000000 0.000000 1.688389 2.058766 1.613228 0.840227 0.012187 0.772948 -52.485475 -13.951308 -41.567104 -30.837577 -75.604990 -20.422027 0.000000 0.000000 0.000000 4.611064 2.440020 -0.182434 3.199610 10.725461 6.642622 19.692467 7.010102 47.980713 11.647760 43.425981 -0.634160 0.000000 0.000000 0.000000 
-5.094727 91.013626 0.485292 0.000000 0.000000 0.000000 13.635205 -32.830069 4.796949 -25.432153 3.027163 16.206760 45.242087 8.906356 -7.039410 -3.320924 12.435656 -10.366274 0.000000 0.000000 0.000000 11.998588 -2.007941 3.793196 -13.736185 -7.288359 -10.674631 25.419118 -6.537573 0.357394 -23.174395 -10.738197 7.464832 0.000000 0.000000 0.000000 3.691547 5.012934 0.054366 1.746436 9.289765 -3.088731 6.036603 3.738268 -1.277137 1.151505 1.942123 -0.111046 0.000000 0.000000 0.000000 -0.779103 0.052582 -0.380719 -2.512402 -0.395480 -0.286184 0.000000 0.000000 0.000000 1.782510 2.005498 1.611759 0.841157 -0.605566 0.777380 -52.562790 -13.871419 -41.843767 -31.401054 -75.722954 -20.883059 0.000000 0.000000 0.000000 4.770997 2.379029 -0.240216 3.182319 10.471216 6.421048 19.557331 7.551771 47.660896 11.661909 42.759890 -0.524985 0.000000 0.000000 0.000000 
